<svg width="16" height="17" viewBox="0 0 16 17" fill="none" xmlns="http://www.w3.org/2000/svg">
<path d="M14.5037 14.2377L12.2121 11.9972L12.1584 11.9155C12.0586 11.8161 11.922 11.7601 11.7795 11.7601C11.637 11.7601 11.5004 11.8161 11.4005 11.9155C9.45303 13.7022 6.45214 13.7993 4.38804 12.1425C2.32395 10.4856 1.83715 7.58891 3.2505 5.37344C4.66384 3.15798 7.53876 2.31123 9.96861 3.39475C12.3985 4.47828 13.6292 7.15586 12.8447 9.65172C12.7882 9.83203 12.8344 10.0281 12.9659 10.1661C13.0973 10.3041 13.2941 10.363 13.4821 10.3207C13.67 10.2784 13.8206 10.1413 13.8771 9.96095C14.815 6.99909 13.3985 3.8117 10.5441 2.4607C7.6897 1.1097 4.25393 2.00054 2.45941 4.55694C0.664888 7.11333 1.05016 10.5681 3.36599 12.6863C5.68183 14.8046 9.23323 14.9506 11.7228 13.0299L13.7518 15.0137C13.9614 15.2177 14.3002 15.2177 14.5097 15.0137C14.719 14.8068 14.719 14.4737 14.5097 14.2669L14.5037 14.2377Z" fill="#667085"/>
</svg>
